# xmcd
#
# Track frame offsets: 
#        150
#        18775
#        43017
#        67187
#        83365
#        109152
#        135800
#        154547
#        186530
#        208685
#        235462
#        254392
#        274242
#
# Disc length: 3860 seconds
#
# Revision: 0
# Processed by: cddbd v1.4PL0 Copyright (c) Steve Scherf et al.
# Submitted via: ExactAudioCopy v0.95a3
#
DISCID=af0f120d
DTITLE=Lester Davenport - I Smell A Rat
DYEAR=2002
DGENRE=Blues
TTITLE0=Bad Treatment
TTITLE1=Knocked On Every Door
TTITLE2=You So Sexy
TTITLE3=West Side Blues Harp
TTITLE4=Mill Sallie Mae
TTITLE5=My Mama Rocks Me
TTITLE6=In My Bedroom
TTITLE7=So Long
TTITLE8=I Smell A Rat
TTITLE9=So Wurrid
TTITLE10=To Our Last Ones
TTITLE11=Stop Beggin' Me
TTITLE12=Goin' Away
EXTD=
EXTT0=
EXTT1=
EXTT2=
EXTT3=
EXTT4=
EXTT5=
EXTT6=
EXTT7=
EXTT8=
EXTT9=
EXTT10=
EXTT11=
EXTT12=
PLAYORDER=
